<?xml version="1.0" encoding="utf-8"?>
<!-- Generator: Adobe Illustrator 25.2.1, SVG Export Plug-In . SVG Version: 6.00 Build 0)  -->
<svg version="1.1" id="图层_1" xmlns="http://www.w3.org/2000/svg" xmlns:xlink="http://www.w3.org/1999/xlink" x="0px" y="0px"
	 viewBox="0 0 18.8 16" xml:space="preserve">
<path d="M13.3,1.8c0.1,0,0.2,0,0.3,0c0.1,0,0.2,0,0.2,0.2c0,0.6,0.1,1.3,0.1,1.9c0,0.7,0.1,1.4,0.1,2c0,0.6,0.1,1.2,0.1,1.9
	c0.1,0.7,0.1,1.4,0.2,2.1c0,0.5,0.1,1.1,0.1,1.6c0,0.5,0.1,1,0.1,1.5c0,0.4,0.1,0.8,0.1,1.3c0,0.1,0,0.1-0.1,0.1
	c-0.4,0-0.7-0.1-1.1,0c-0.1,0-0.1,0-0.1-0.1c0-0.2,0-0.4,0-0.5c-0.1-0.5-0.1-1-0.1-1.4c0-0.4-0.1-0.9-0.1-1.3c0-0.4-0.1-0.8-0.1-1.2
	c0-0.4-0.1-0.8-0.1-1.2c0-0.4-0.1-0.7-0.1-1.1c-0.1-0.5-0.1-1-0.2-1.6c-0.1-0.5-0.1-1-0.2-1.4c-0.1-0.6-0.2-1.3-0.3-1.9
	c0-0.1-0.1-0.3-0.1-0.4c0-0.1,0-0.1,0.1-0.1c0.2,0,0.4-0.1,0.7-0.1C12.9,1.8,13.1,1.8,13.3,1.8z M11.3,8.1c0.5,0,0.5,0,0.5,0.4
	c0.1,0.6,0.2,1.3,0.3,1.9c0.1,0.6,0.1,1.2,0.2,1.9c0,0.4,0.1,0.9,0.1,1.3c0,0.3,0.1,0.6,0.1,0.9c0,0,0,0.1,0,0.1
	c0,0.1,0,0.2-0.1,0.2c-0.3,0-0.6,0.1-0.8,0.1c-0.1,0-0.2,0-0.3,0c-0.1,0-0.1,0-0.2-0.1c-0.1-0.5-0.2-1-0.3-1.4
	c-0.2-1.2-0.4-2.3-0.7-3.5C10,9.4,9.9,8.9,9.8,8.5c0-0.1,0-0.1,0.1-0.1C10.4,8.2,10.9,8.1,11.3,8.1z M17.3,12.9v1.9c0,0,0,0,0,0.1
	c0,0.1,0,0.1-0.1,0.1c-0.1,0-0.3,0-0.4,0c-0.3,0-0.5,0-0.8,0c-0.1,0-0.1,0-0.2-0.1c0-0.5-0.1-1-0.1-1.5c0-0.5-0.1-0.9-0.1-1.4
	c0-0.5-0.1-0.9-0.1-1.4c0-0.3-0.1-0.6-0.1-0.9c0-0.4-0.1-0.8-0.1-1.2c0-0.2,0-0.2,0.2-0.2c0.4,0,0.9-0.1,1.3,0c0.1,0,0.2,0,0.3,0.1
	c0.1,0,0.1,0.1,0.2,0.2c0,0.3,0,0.6,0,0.8c0,0.3,0,0.6,0,0.9C17.3,11.2,17.3,12.1,17.3,12.9z M10.9,4.8c0.1,0,0.2,0,0.4,0
	c0.1,0,0.1,0,0.1,0.1c0,0.2,0,0.4,0.1,0.6c0.1,0.6,0.1,1.1,0.2,1.7c0,0.1,0,0.1-0.1,0.1c-0.2,0-0.4,0-0.6,0c-0.1,0-0.1,0-0.1-0.1
	c-0.1-0.4-0.1-0.8-0.2-1.3c0-0.3-0.1-0.7-0.1-1c0-0.1,0-0.1,0.1-0.1C10.7,4.8,10.8,4.8,10.9,4.8z M17.1,6.3c0,0.4,0,0.7,0,1.1
	c0,0.2,0,0.2-0.2,0.2c-0.2,0-0.4,0-0.6,0c-0.1,0-0.1,0-0.1-0.1c0-0.4,0-0.9,0-1.3c0-0.3,0-0.6,0-0.9c0-0.2,0-0.2,0.1-0.2
	c0.2,0,0.4,0,0.7,0c0.1,0,0.1,0,0.1,0.2C17.1,5.6,17.1,6,17.1,6.3L17.1,6.3L17.1,6.3z M10.4,7.2c0,0.2,0,0.2-0.2,0.2
	c-0.1,0-0.3,0.1-0.4,0.1c-0.1,0-0.1,0-0.1-0.1C9.6,6.7,9.4,6,9.3,5.2c0-0.2,0-0.2,0.1-0.2C9.6,5,9.8,5,10,4.9c0.1,0,0.1,0,0.2,0.1
	c0,0.3,0.1,0.5,0.1,0.8C10.3,6.3,10.4,6.7,10.4,7.2C10.4,7.1,10.4,7.2,10.4,7.2z M15.9,6.7c0,0.3,0,0.5,0,0.7c0,0.1,0,0.1-0.1,0.1
	c-0.2,0-0.3,0-0.5,0c-0.1,0-0.1,0-0.1-0.1c0-0.2,0-0.5-0.1-0.7c0-0.4-0.1-0.9-0.1-1.3c0-0.1,0-0.2,0-0.3c0-0.1,0-0.1,0.1-0.1
	c0.2,0,0.4,0,0.6,0c0.1,0,0.1,0,0.1,0.1c0,0.1,0,0.2,0,0.3C15.9,5.5,15.9,6.7,15.9,6.7z M9.8,11.8c0.3,0.3,0.3,0.6,0.2,1
	c-0.1,0.4-0.3,0.6-0.5,0.9c-0.4,0.4-0.9,0.8-1.4,1c-0.9,0.5-1.8,0.8-2.8,1c-0.7,0.1-1.4,0.2-2.1,0.3c-0.2,0-0.4,0-0.7,0
	c-0.2,0-0.3,0-0.5,0c-0.1,0-0.2,0-0.2-0.2c0-0.5-0.1-1-0.1-1.5c-0.1-0.6-0.1-1.2-0.2-1.7c0-0.4-0.1-0.8-0.1-1.3
	c-0.1-0.5-0.1-1-0.2-1.5C1.3,9.4,1.2,8.9,1.2,8.5C1.1,8,1,7.5,1,7C0.9,6.5,0.8,6,0.8,5.5C0.6,4.7,0.5,3.9,0.4,3.1
	C0.3,2.5,0.1,1.8,0,1.2C0,1.1,0,1.1,0.1,1c0.7-0.3,1.4-0.6,2.2-0.9C2.4,0.1,2.5,0,2.7,0c0.1,0,0.1,0,0.1,0.1c0,0.3,0,0.5,0,0.8
	c0,0.1,0,0.1,0,0.2c0,0.9,0,1.8,0,2.7c0,0.8,0.1,1.6,0.1,2.4C2.9,6.8,3,7.5,3,8.1C3.1,8.7,3.1,9.3,3.2,10c0,0.1,0,0.1,0.2,0.1
	C3.6,10,3.9,10,4.1,10c0.8,0,1.6,0.1,2.4,0.3c0.7,0.2,1.4,0.4,2,0.7c0.3,0.2,0.6,0.3,0.9,0.6C9.6,11.6,9.7,11.7,9.8,11.8z M4.8,14.4
	c0.4-0.2,2.1-1.5,2.3-1.8c-0.9-0.4-1.7-0.7-2.6-1C4.5,11.7,4.8,14.4,4.8,14.4z"/>
</svg>
