<svg pointer-events="bounding-box" viewBox="0 0 974.97 246.53" class="comp-dolbyLogo dolbyLogo -desktop uncustomized"><g><path d="M269.23,.01V189.29h-27.92c-52.14,0-94.64-42.5-94.64-94.64S189.17,.01,241.31,.01h27.92Z"></path> <path d="M27.92,.01C80.06,.01,122.56,42.51,122.56,94.65s-42.5,94.64-94.64,94.64H0V.01H27.92Z"></path></g> <g><path d="M868.87,58.42l37.38,84.05,37.38-84.05h31.34c-6.37,14.25-74.24,165.92-74.31,166.07-8.35,18.7-30.35,27.16-49,18.84h0l-9.94-4.43-.05-.02h0l11.58-26,4.12,1.84c7.69,3.43,16.76-.06,20.2-7.77,.03-.07,13.01-29.28,13.01-29.28h0l-53.06-119.25h31.35Z"></path><rect x="653.86" y=".03" width="28.69" height="189.26"></rect> <path d="M772.92,58.31c-13.94,0-26.87,4.38-37.5,11.82V.03h-28.75V189.29h28.75v-11.63c10.64,7.44,23.56,11.82,37.5,11.82,36.17,0,65.59-29.42,65.59-65.59s-29.42-65.59-65.59-65.59Zm0,104.89c-17.54,0-32.29-11.42-37.5-27.09-1.31-3.93-2.04-8.11-2.04-12.46s.74-8.56,2.04-12.48c5.25-15.76,20.13-27.06,37.5-27.06,21.7,0,39.54,17.84,39.54,39.54s-17.84,39.54-39.54,39.54Z"></path> <path d="M569.71,58.3c-36.17,0-65.59,29.42-65.59,65.59s29.42,65.59,65.59,65.59,65.58-29.42,65.58-65.59-29.42-65.59-65.58-65.59Zm0,104.89c-21.94,0-39.54-17.84-39.54-39.54s17.84-39.54,39.54-39.54,39.54,17.84,39.54,39.54-17.84,39.54-39.54,39.54Z"></path> <path d="M394.92,0h-68.36V189.29h68.36c52.19,0,94.64-42.46,94.64-94.65S447.1,0,394.92,0Zm0,160.59h-39.67V28.7h39.67c36.33,0,65.95,29.62,65.95,65.95s-29.61,65.95-65.95,65.95Z"></path></g></svg>