<svg xmlns="http://www.w3.org/2000/svg" xmlns:xlink="http://www.w3.org/1999/xlink" viewBox="0 0 20 20" width="20" height="20" fill="currentColor" class="bili-watch-later__icon"><path d="M10 3.1248000000000005C6.20305 3.1248000000000005 3.1250083333333336 6.202841666666667 3.1250083333333336 9.999833333333335C3.1250083333333336 13.796750000000001 6.20305 16.874833333333335 10 16.874833333333335C11.898291666666667 16.874833333333335 13.615833333333333 16.106291666666667 14.860625 14.861916666666666C15.104708333333335 14.617916666666666 15.500416666666668 14.617958333333334 15.7445 14.862041666666668C15.9885 15.106166666666669 15.988416666666668 15.501916666666666 15.744333333333334 15.745958333333334C14.274750000000001 17.215041666666668 12.243041666666667 18.124833333333335 10 18.124833333333335C5.512691666666667 18.124833333333335 1.8750083333333334 14.487125 1.8750083333333334 9.999833333333335C1.8750083333333334 5.512483333333334 5.512691666666667 1.8748000000000002 10 1.8748000000000002C14.487291666666668 1.8748000000000002 18.125 5.512483333333334 18.125 9.999833333333335C18.125 10.304458333333333 18.108208333333334 10.605458333333333 18.075458333333337 10.901791666666668C18.0375 11.244916666666667 17.728625 11.492291666666667 17.385583333333333 11.454333333333334C17.0425 11.416416666666667 16.795083333333334 11.107541666666668 16.833000000000002 10.764458333333334C16.860750000000003 10.513625000000001 16.875 10.2585 16.875 9.999833333333335C16.875 6.202841666666667 13.796958333333333 3.1248000000000005 10 3.1248000000000005z" fill="currentColor"></path><path d="M15.391416666666666 9.141166666666667C15.635458333333334 8.897083333333335 16.031208333333332 8.897083333333335 16.275291666666668 9.141166666666667L17.5 10.365875L18.72475 9.141166666666667C18.968791666666668 8.897083333333335 19.364541666666668 8.897083333333335 19.608625 9.141166666666667C19.852666666666668 9.385291666666667 19.852666666666668 9.780958333333334 19.608625 10.025083333333333L18.08925 11.544416666666669C17.763833333333334 11.869833333333334 17.236208333333334 11.869833333333334 16.91075 11.544416666666669L15.391416666666666 10.025083333333333C15.147333333333334 9.780958333333334 15.147333333333334 9.385291666666667 15.391416666666666 9.141166666666667z" fill="currentColor"></path><path d="M12.499333333333334 9.278375C13.05475 9.599 13.05475 10.400666666666668 12.499333333333334 10.721291666666668L9.373916666666666 12.525791666666668C8.818541666666667 12.846416666666666 8.124274999999999 12.445583333333333 8.124274999999999 11.804291666666668L8.124274999999999 8.1954C8.124274999999999 7.554066666666667 8.818541666666667 7.153233333333334 9.373916666666666 7.473900000000001L12.499333333333334 9.278375z" fill="currentColor"></path></svg>